<svg width="127" height="81" viewBox="0 0 127 81" fill="none" xmlns="http://www.w3.org/2000/svg">
<rect x="0.5" y="0.5" width="106" height="80" fill="#F2F2F2" stroke="black"/>
<path d="M10.72 53V25.28H17.28V47.82H29.3L28.62 53H10.72ZM42.9844 31.06C45.171 31.06 47.031 31.5267 48.5644 32.46C50.0977 33.3933 51.271 34.7067 52.0844 36.4C52.8977 38.08 53.3044 40.0533 53.3044 42.32C53.3044 45.8667 52.3977 48.6467 50.5844 50.66C48.771 52.6733 46.2377 53.68 42.9844 53.68C39.731 53.68 37.1977 52.6867 35.3844 50.7C33.571 48.7133 32.6644 45.9333 32.6644 42.36C32.6644 40.1067 33.071 38.1333 33.8844 36.44C34.711 34.7467 35.891 33.4267 37.4244 32.48C38.971 31.5333 40.8244 31.06 42.9844 31.06ZM42.9844 35.72C41.691 35.72 40.731 36.2533 40.1044 37.32C39.491 38.3733 39.1844 40.0533 39.1844 42.36C39.1844 44.7067 39.491 46.4067 40.1044 47.46C40.731 48.5133 41.691 49.04 42.9844 49.04C44.2777 49.04 45.231 48.5133 45.8444 47.46C46.471 46.4067 46.7844 44.6933 46.7844 42.32C46.7844 40.0267 46.471 38.3533 45.8444 37.3C45.231 36.2467 44.2777 35.72 42.9844 35.72ZM57.7688 53V31.76H63.2888L63.7288 34.22C64.6754 33.1533 65.6754 32.36 66.7287 31.84C67.7821 31.32 68.9821 31.06 70.3288 31.06C72.1421 31.06 73.5688 31.6133 74.6088 32.72C75.6488 33.8267 76.1688 35.3867 76.1688 37.4V53H69.8488V39.22C69.8488 37.9133 69.7021 37.0067 69.4088 36.5C69.1288 35.98 68.5954 35.72 67.8088 35.72C67.1421 35.72 66.5021 35.9333 65.8888 36.36C65.2888 36.7867 64.6888 37.38 64.0888 38.14V53H57.7688ZM100.613 28.36L102.093 33C101.346 33.2933 100.473 33.5067 99.4731 33.64C98.4731 33.7733 97.3065 33.84 95.9731 33.84C97.3065 34.4133 98.3198 35.1267 99.0131 35.98C99.7198 36.82 100.073 37.9267 100.073 39.3C100.073 40.6733 99.7065 41.9 98.9731 42.98C98.2398 44.0467 97.1998 44.8867 95.8531 45.5C94.5065 46.1133 92.9131 46.42 91.0731 46.42C90.1931 46.42 89.3731 46.34 88.6131 46.18C88.1465 46.42 87.9131 46.8267 87.9131 47.4C87.9131 47.7333 88.0465 48.0333 88.3131 48.3C88.5931 48.5667 89.2398 48.7 90.2531 48.7H93.7331C96.1998 48.7 98.1665 49.28 99.6331 50.44C101.1 51.6 101.833 53.0667 101.833 54.84C101.833 57.0133 100.88 58.7267 98.9731 59.98C97.0665 61.2333 94.2331 61.86 90.4731 61.86C87.7531 61.86 85.6465 61.58 84.1531 61.02C82.6731 60.4733 81.6398 59.6867 81.0531 58.66C80.4798 57.6467 80.1931 56.44 80.1931 55.04H85.7931C85.7931 55.6533 85.9131 56.1533 86.1531 56.54C86.4065 56.94 86.8798 57.2333 87.5731 57.42C88.2798 57.6067 89.2998 57.7 90.6331 57.7C91.9798 57.7 93.0065 57.5933 93.7131 57.38C94.4198 57.1667 94.8998 56.8733 95.1531 56.5C95.4198 56.14 95.5531 55.7333 95.5531 55.28C95.5531 54.6533 95.3065 54.1467 94.8131 53.76C94.3198 53.3733 93.5398 53.18 92.4731 53.18H89.0931C86.7998 53.18 85.1331 52.76 84.0931 51.92C83.0531 51.0667 82.5331 50.0733 82.5331 48.94C82.5331 48.1533 82.7398 47.4067 83.1531 46.7C83.5798 45.9933 84.1731 45.4 84.9331 44.92C83.5731 44.2 82.5998 43.3533 82.0131 42.38C81.4265 41.3933 81.1331 40.2133 81.1331 38.84C81.1331 37.24 81.5398 35.8667 82.3531 34.72C83.1665 33.56 84.2865 32.6667 85.7131 32.04C87.1531 31.4133 88.7931 31.1 90.6331 31.1C92.2198 31.1267 93.5998 31.02 94.7731 30.78C95.9465 30.5267 96.9998 30.1867 97.9331 29.76C98.8665 29.32 99.7598 28.8533 100.613 28.36ZM90.7931 35.2C89.7931 35.2 88.9998 35.52 88.4131 36.16C87.8265 36.7867 87.5331 37.6533 87.5331 38.76C87.5331 39.9333 87.8331 40.8333 88.4331 41.46C89.0331 42.0867 89.8198 42.4 90.7931 42.4C92.9531 42.4 94.0331 41.16 94.0331 38.68C94.0331 36.36 92.9531 35.2 90.7931 35.2ZM110.478 49.22C110.478 48.4067 110.678 47.6667 111.078 47C111.478 46.32 112.018 45.78 112.698 45.38C113.378 44.9667 114.124 44.76 114.938 44.76C115.764 44.76 116.511 44.9667 117.178 45.38C117.858 45.78 118.398 46.32 118.798 47C119.198 47.6667 119.398 48.4067 119.398 49.22C119.398 50.02 119.198 50.76 118.798 51.44C118.398 52.12 117.858 52.66 117.178 53.06C116.511 53.4733 115.764 53.68 114.938 53.68C114.124 53.68 113.378 53.4733 112.698 53.06C112.018 52.66 111.478 52.12 111.078 51.44C110.678 50.76 110.478 50.02 110.478 49.22Z" fill="black"/>
</svg>
